<?xml version="1.0" encoding="UTF-8"?>
<svg width="463px" height="381px" viewBox="0 0 463 381" version="1.1" xmlns="http://www.w3.org/2000/svg" xmlns:xlink="http://www.w3.org/1999/xlink">
    <!-- Generator: Sketch 52.4 (67378) - http://www.bohemiancoding.com/sketch -->
    <title>8bit</title>
    <desc>Created with Sketch.</desc>
    <defs>
        <polygon id="path-1" points="0 0.199640816 9.925725 0.199640816 9.925725 15.9175184 0 15.9175184"></polygon>
    </defs>
    <g id="Desktop" stroke="none" stroke-width="1" fill="none" fill-rule="evenodd">
        <g id="Desktop-—-Homepage-Copy-8" transform="translate(-448.000000, -1529.000000)">
            <g id="SIGN-UP" transform="translate(0.000000, 1450.000000)">
                <g id="8bit" transform="translate(448.000000, 79.000000)">
                    <path d="M463,381 L463,0.0725181581 C463,0.0725181581 295.830307,0.104721431 291.712116,0.121158518 C291.712116,0.1573872 273.082832,0.0433339421 269.517465,6.07943442e-05 C269.131057,-0.00497096703 269.048149,0.301295575 269.05174,1.309996 C269.069699,6.16296212 269.057128,11.0165991 269.055332,15.8695653 C265.486972,15.8722489 261.918312,15.9004267 258.350251,15.8558118 C257.634603,15.8470901 257.358641,16.0101191 257.372109,17.1057013 C257.431672,21.9452494 257.414312,26.7864747 257.425087,31.6270292 C253.895338,31.6662769 250.365588,31.7551714 246.836437,31.7122337 C245.87356,31.7008283 245.592809,32.026551 245.604482,33.3660059 C245.646385,38.1532237 245.559286,47.7306783 245.559286,47.7306783 C241.988531,47.7192729 238.417477,47.7440963 234.847321,47.667949 C234.056846,47.6515119 233.907491,47.9799182 233.915572,48.9762069 C233.955979,53.8187741 233.937123,58.662683 233.939218,63.5062565 C230.371456,63.5169909 226.803694,63.5307444 223.236232,63.533428 C222.696877,63.5340989 222.207507,63.3848233 222.221874,64.56561 C222.281436,69.4574884 222.272158,74.3507086 222.288021,79.2435934 C221.866594,79.5589171 221.406257,79.450231 220.959688,79.4509019 C217.838795,79.4582818 214.717302,79.5102767 211.597905,79.4227241 C210.650892,79.395888 210.443471,79.7746119 210.454845,81.0067225 C210.498843,85.7630788 210.454845,90.5207769 210.442872,95.2778041 C210.394684,95.2778041 210.346495,95.2774687 210.298007,95.2771332 C210.226173,95.1516747 210.121415,95.0973316 209.967869,95.0993443 C206.402502,95.1389275 202.837135,95.1406048 199.271767,95.0969962 C198.885659,95.0922999 198.802451,95.3985664 198.806043,96.4069314 C198.824001,101.259898 198.81143,106.113535 198.809634,110.966836 C195.241274,110.96952 191.672914,110.997698 188.104553,110.953083 C187.388906,110.944025 187.112943,111.107725 187.126412,112.202637 C187.185974,117.042185 187.168914,121.883746 187.179389,126.723965 C183.64964,126.763212 180.11989,126.852107 176.590739,126.809169 C175.627863,126.797764 175.347111,127.124157 175.358784,128.462941 C175.400687,133.250159 175.337533,138.03939 175.313888,142.827614 L175.332146,142.853108 C175.332146,142.853108 175.313888,142.827614 175.313888,142.827614 C171.742834,142.816208 168.171779,142.841032 164.601623,142.76522 C163.811148,142.748447 163.661793,143.077189 163.669875,144.073142 C163.710281,148.916045 163.691425,153.759954 163.69352,158.603192 C160.125758,158.613926 156.558296,158.62768 152.990534,158.631034 C152.451179,158.631034 151.962109,158.481759 151.976475,159.662881 C152.035739,164.554759 152.02646,169.447979 152.042623,174.340864 C151.620897,174.655852 151.160559,174.547166 150.713991,174.548173 C147.593097,174.555217 144.471605,174.607212 141.352208,174.519659 C140.405494,174.493159 140.197773,174.871883 140.209147,176.103658 C140.252248,180.779506 140.210943,185.456361 140.198073,190.13288 C140.145993,190.108392 140.087927,190.093296 140.016392,190.093967 C136.451025,190.133886 132.885658,190.135563 129.32059,190.091955 C128.934182,190.087258 128.850974,190.393525 128.854566,191.40189 C128.872524,196.254856 128.859953,201.108157 128.858457,205.961794 C125.290096,205.964478 121.721437,205.992656 118.153375,205.948041 C117.437429,205.938984 117.161765,206.102348 117.175234,207.197595 C117.234796,212.037479 117.217437,216.878368 117.228212,221.719258 C113.698462,221.758506 110.168413,221.847065 106.639262,221.804463 C105.676386,221.792722 105.395933,222.11878 105.407606,223.4579 C105.44951,228.245117 105.269924,237.803787 105.269924,237.803787 C105.269924,237.803787 98.2203023,237.83599 94.6504454,237.759843 C93.8599706,237.74307 93.7103162,238.072147 93.7186968,239.068101 C93.7588042,243.911003 93.7402471,248.754912 93.7420429,253.59815 C90.1745805,253.608549 86.6068187,253.622638 83.0393562,253.625657 C82.5000016,253.625993 82.0109309,253.476717 82.0249984,254.657504 C82.0845609,259.549382 82.0752823,264.442938 82.0911457,269.335487 C81.6694195,269.650811 81.2090824,269.541789 80.7625136,269.542796 C77.6419193,269.550511 74.5201277,269.60217 71.4007306,269.514618 C70.4540167,269.487782 70.2462963,269.866841 70.25767,271.098952 C70.3016684,275.855308 70.2579693,280.612671 70.245997,285.370033 C70.1978083,285.369698 70.1496195,285.369698 70.1011315,285.369362 C70.0292974,285.243904 69.9245393,285.189561 69.7706945,285.191238 C66.2053272,285.230821 62.6399599,285.232499 59.0748919,285.18889 C58.6884841,285.184194 58.6052762,285.49046 58.6091673,286.499161 C58.6271258,291.351791 58.6145548,296.205764 58.612759,301.05873 C55.0443986,301.061413 51.4757389,301.089591 47.9076778,301.044976 C47.1917309,301.036255 46.9160675,301.199284 46.9295364,302.294866 C46.9890988,307.134414 46.9720382,311.975304 46.982514,316.816194 C43.4527645,316.855442 39.9227156,316.944001 36.3935647,316.901398 C35.4309873,316.889657 35.1502356,317.215716 35.1619086,318.55517 C35.2038119,323.342388 35.1352702,332.945337 35.1352702,332.945337 C38.6135386,332.925546 38.6135386,332.925546 35.1352702,332.945337 C35.1352702,332.945337 35.1170123,332.919843 35.116713,332.919843 C31.5459581,332.908438 27.9746046,332.932925 24.4047477,332.857114 C23.614273,332.840341 23.4649178,333.169083 23.4729992,334.165036 C23.5134059,339.007939 23.4945494,343.851848 23.4966446,348.695421 C19.9288828,348.70582 16.3614203,348.719909 12.7936585,348.722593 C12.2543039,348.723264 11.7652332,348.573988 11.7793008,349.754775 C11.8388632,354.646318 11.8295846,359.539873 11.8457473,364.432423 C11.4240211,364.748082 10.9636841,364.63906 10.5171152,364.640067 C7.3962216,364.647446 4.27472935,364.699441 1.15503295,364.611889 C0.208318977,364.585053 0.000598617749,364.963777 0.0122716639,366.195887 C0.0565693773,370.983776 0.0116730461,375.773006 0,380.561901 L0.0137682082,380.57968 C3.9326193,380.536743 7.8514704,380.493805 11.7703215,380.450532 L463,381 Z" id="Fill-1" fill="#FFE4DA"></path>
                    <polygon id="Fill-3" fill="#FFE4DA" points="303.882474 0 463 0 463 381 27 381 27.7509388 371.998151"></polygon>
                    <path d="M91.9869422,301 C88.3256941,300.998979 84.6647124,300.998298 81.0034643,300.997617 C81.0021319,295.681418 81.0010659,290.365559 81,285.0497 C84.6665778,285.03302 88.3334222,285.01668 92,285 C91.9957362,290.33322 91.9914725,295.66644 91.9869422,301" id="Fill-5" fill="#FFE4DA"></path>
                    <path d="M80.9969055,285.051868 C80.9979335,290.345764 80.9989616,295.639659 80.9999897,300.934233 C81.0002467,300.934233 80.9956204,300.941691 80.9956204,300.941352 C77.6821664,300.961014 74.3684555,300.980338 71.0550015,301 L71,300.912876 C71.0041123,295.608471 71.0084815,290.304066 71.0125938,285 C74.3409547,285.01695 77.6688016,285.034578 80.9969055,285.051868" id="Fill-7" fill="#FCF1ED"></path>
                    <path d="M60.0031953,300.929293 C60.0047379,296.05759 60.0155364,291.186223 60.00011,286.315194 C59.9967676,285.303075 60.0682432,284.995669 60.3999102,285.000046 C63.4625597,285.043817 66.5254663,285.042133 69.5878587,285.002403 C69.9195257,284.998362 69.9938295,285.327991 69.9917726,286.338089 C69.980717,291.208446 69.9948579,296.079139 70,300.949495 L69.9992287,300.951179 C68.3182681,300.96734 66.6373075,300.983838 64.9560898,301 C63.3072675,300.982828 61.6581881,300.96532 60.0091087,300.948485 L60.0031953,300.929293 Z" id="Fill-9" fill="#FFFFFF"></path>
                    <path d="M35,332.974377 C35.0218787,328.224491 35.0805912,323.473608 35.0415418,318.72472 C35.030741,317.396656 35.2905159,317.072876 36.1814497,317.084522 C39.4469146,317.126783 42.7132103,317.038601 45.9789521,317 L46,317.029283 C45.9728593,322.304937 45.9454417,327.580591 45.9183011,332.856578 C45.5031597,332.884531 45.0877414,332.93378 44.6723231,332.937107 C41.4539389,332.963063 38.2355548,332.980367 35.0171706,333 L35,332.974377 Z" id="Fill-11" fill="#FFFFFF"></path>
                    <g id="Group-15" transform="translate(0.000000, 364.000000)">
                        <mask id="mask-2" fill="white">
                            <use xlink:href="#path-1"></use>
                        </mask>
                        <g id="Clip-14"></g>
                        <path d="M-2.5e-05,15.8998857 C0.009725,11.2386612 0.047225,6.57645714 0.010225,1.91588571 C0.000475,0.716538776 0.173975,0.347885714 0.964975,0.373681633 C3.570475,0.459232653 6.177725,0.408620408 8.784475,0.401436735 C9.157475,0.400457143 9.541725,0.506253061 9.894225,0.199640816 L9.925725,0.246008163 C9.904975,0.837355102 9.868225,1.42902857 9.865975,2.02037551 C9.850725,6.61106939 9.841975,11.2011102 9.831225,15.7918041 C6.557975,15.8336 3.284725,15.8757224 0.011475,15.9175184 L-2.5e-05,15.8998857 Z" id="Fill-13" fill="#FFFFFF" mask="url(#mask-2)"></path>
                    </g>
                    <path d="M10.0566536,364.848255 C10.0428749,359.920885 10.0507849,354.993177 10.0002631,350.06682 C9.98801542,348.877711 10.4052027,349.028039 10.8647466,349.027701 C13.9062588,349.02466 16.9475159,349.010472 19.9890281,349 L20,349.017904 C19.9954071,354.302683 19.9910694,359.588137 19.9864765,364.872915 C16.6875074,365.061078 13.3882832,365.015473 10.0888038,364.896225 L10.0566536,364.848255 Z" id="Fill-16" fill="#FFFFFF"></path>
                    <path d="M24.0225882,348.98206 C24.0206121,344.095051 24.0383973,339.207364 24.0002862,334.320693 C23.9926639,333.315738 24.1335339,332.983687 24.8791002,333.000611 C28.2461463,333.077447 31.614604,333.05206 34.9827794,333.063907 L35,333.08997 C34.9960477,338.387559 34.9918132,343.685487 34.9878609,348.983414 C31.3368164,348.98883 27.6857718,348.994246 24.034445,349 L24.0225882,348.98206 Z" id="Fill-18" fill="#FFFFFF"></path>
                    <path d="M47.0502412,316.970109 C47.0403935,312.068277 47.0564311,307.166106 47.0004401,302.265633 C46.9877789,301.156598 47.2471945,300.991177 47.920212,301.000348 C51.275452,301.045525 54.6312547,301.016992 57.9870574,301.014275 L58,301.033636 C57.9952168,306.348172 57.9904337,311.663386 57.9859319,316.977921 L47.0716247,317 L47.0502412,316.970109 Z" id="Fill-20" fill="#FFFFFF"></path>
                    <path d="M80.9882302,317 C77.6599289,316.999319 74.3316276,316.998638 71.0030704,316.997617 C71.0020469,311.681645 71.0010235,306.365673 71,301.049361 C74.3334186,301.033021 77.6668372,301.01634 81,301 C80.996162,306.333333 80.992324,311.666667 80.9882302,317" id="Fill-22" fill="#FFE4DA"></path>
                    <path d="M69.9969055,301.051868 C69.9979335,306.346103 69.9989616,311.639998 69.9999897,316.934233 C70.0002467,316.934233 69.9956204,316.941691 69.9956204,316.941691 C66.6821664,316.961014 63.3684555,316.980338 60.0550015,317 L60,316.912876 C60.0041123,311.60881 60.0084815,306.304066 60.0128508,301 C63.3409547,301.01695 66.6688016,301.034578 69.9969055,301.051868" id="Fill-24" fill="#FCF1ED"></path>
                    <path d="M47.0828499,317.021293 L57.9403807,317 C57.9403807,317 58.0002789,317.085174 57.999999,317.084841 C57.9812458,322.381244 57.9624927,327.678311 57.9440194,332.975047 L57.9442993,332.975047 C54.3263352,332.983697 50.7086511,332.992015 47.090687,333 C47.0593384,332.950094 47.0291094,332.898524 47,332.845956 C47.0277099,327.570846 47.0551399,322.29607 47.0828499,317.021293" id="Fill-26" fill="#FCF1ED"></path>
                    <path d="M35,348.916698 C35.0038764,343.659277 35.0077527,338.401856 35.011906,333.144771 C38.229561,333.124617 41.4472161,333.107486 44.665148,333.080951 C45.0804722,333.077928 45.4955195,333.028215 45.9105669,333 C45.9393627,333.052735 45.969266,333.105135 46,333.155183 C45.9941855,338.409245 45.9886478,343.662972 45.9828333,348.917034 C42.3409938,348.944913 38.6988774,348.972457 35.056761,349 L35,348.916698 Z" id="Fill-28" fill="#FCF1ED"></path>
                    <path d="M10.0957096,364.022625 C13.3782686,364.140406 16.6608276,364.18499 19.9433866,364 L20,364.088503 C19.9827367,369.385348 19.9654735,374.681861 19.9484641,379.978373 C19.9484641,379.978373 19.9487179,379.978041 19.9487179,379.978373 C16.6666667,379.985693 13.3846154,379.993013 10.1023102,380 C10.0693069,379.952754 10.0352881,379.907172 10,379.863254 C10.0106626,375.185593 10.0195481,370.508266 10.0350343,365.830938 C10.0373191,365.228056 10.0746382,364.625507 10.0957096,364.022625" id="Fill-30" fill="#FCF1ED"></path>
                    <path d="M24.0149273,349.016593 C27.6577465,349.010836 31.3002841,349.005418 34.9428216,349 C34.9428216,349 35.0005592,349.083979 34.9999959,349.083302 C34.9864769,354.36618 34.9732395,359.649397 34.9600021,364.932614 L34.9546508,364.940063 C31.3239424,364.960042 27.6935156,364.98036 24.0628072,365 L24,364.909926 C24.0050696,359.612148 24.0098576,354.31437 24.0149273,349.016593" id="Fill-32" fill="#FCF1ED"></path>
                    <path d="M60,332.966897 C60.0169527,327.663586 60.0339054,322.359942 60.0513719,317.056964 C63.3630592,317.038309 66.6744897,317.018988 69.986177,317 C69.9841222,321.774645 69.9520147,326.549957 69.9995337,331.32327 C70.0128904,332.665421 69.7413901,333.019197 68.9140462,332.99921 C65.9432112,332.927922 62.9713487,332.968562 60,332.966897" id="Fill-34" fill="#FFE4DA"></path>
                    <path d="M35,364.977502 C35.013027,359.679287 35.026054,354.381073 35.0396353,349.083198 C38.6858047,349.056032 42.331697,349.028186 45.9773121,349 C45.9784208,353.753859 45.9507038,358.508396 45.9994857,363.261236 C46.0127898,364.582903 45.7716521,365.020969 44.8475678,364.999235 C41.5658767,364.922828 38.2827998,364.974445 35,364.977502" id="Fill-36" fill="#FFE4DA"></path>
                    <path d="M24.0573921,364.058985 C27.7016523,364.039323 31.3461951,364.019662 34.9907379,364 C34.9881934,368.831785 34.9624659,373.663569 34.9997849,378.494688 C35.008832,379.674391 34.7337455,380.012639 33.9279936,379.999642 C30.6190394,379.945989 27.3095197,379.975648 24,379.974315 C24.019225,374.669316 24.0381672,369.364317 24.0573921,364.058985" id="Fill-38" fill="#FFE4DA"></path>
                    <path d="M47,348.966466 C47.0059353,343.652577 47.0118707,338.339028 47.0175234,333.025139 C50.6711437,333.017326 54.3241988,333.008493 57.9775365,333 C57.978667,337.790721 57.9526646,342.581442 57.999582,347.371144 C58.0120179,348.635579 57.7494502,349.017084 56.8800655,348.999419 C53.5873698,348.931135 50.2935436,348.968504 47,348.966466" id="Fill-40" fill="#FFE4DA"></path>
                    <path d="M162.98813,207 C159.659803,206.999319 156.331476,206.998638 153.003149,206.997617 C153.00218,201.681645 153.000969,196.365673 153,191.049701 C156.333414,191.033021 159.666828,191.01668 163,191 C162.996124,196.333333 162.992248,201.666667 162.98813,207" id="Fill-42" fill="#FFE4DA"></path>
                    <path d="M151.996596,191.052206 C151.997727,196.345989 151.998858,201.639773 151.999989,206.933896 C152.000271,206.934235 151.995182,206.941692 151.995182,206.941353 C148.350383,206.961015 144.705301,206.980338 141.060502,207 L141,206.912878 C141.004523,201.608585 141.00933,196.304293 141.013853,191 C144.674767,191.017289 148.335682,191.034578 151.996596,191.052206" id="Fill-44" fill="#FCF1ED"></path>
                    <path d="M128.00318,206.929293 C128.004722,202.05759 128.015521,197.186223 128.000094,192.315194 C127.997009,191.303075 128.068228,190.995669 128.400152,191.000046 C131.462807,191.043817 134.525461,191.042133 137.588115,191.002403 C137.919526,190.998026 137.994087,191.327654 137.991773,192.338089 C137.980717,197.208446 137.994858,202.079139 138,206.949495 L137.999486,206.950842 C136.318265,206.96734 134.637302,206.983838 132.956339,207 C131.307257,206.982828 129.658175,206.96532 128.009093,206.948485 L128.00318,206.929293 Z" id="Fill-46" fill="#FFFFFF"></path>
                    <path d="M106,236.974706 C106.01989,232.224723 106.073013,227.473741 106.037765,222.724756 C106.027946,221.396664 106.264105,221.072877 107.074045,221.084524 C110.04265,221.126786 113.011758,221.038602 115.980866,221 L116,221.029284 C115.975327,226.305047 115.950402,231.580809 115.925728,236.856905 C115.548327,236.884858 115.170674,236.934108 114.793021,236.937436 C111.867217,236.963392 108.941413,236.980363 106.015358,236.999997 C106.015358,237.00033 106,236.974706 106,236.974706" id="Fill-48" fill="#FFFFFF"></path>
                    <path d="M71,284.982051 C71.0098229,280.237161 71.0473516,275.491275 71.0103267,270.74705 C71.0005037,269.526176 71.1753016,269.150906 71.9719669,269.177165 C74.5972093,269.264251 77.2239629,269.212731 79.8502128,269.205418 C80.2260031,269.204421 80.6131275,269.312116 80.9680125,269 L81,269.0472 C80.9790948,269.649161 80.941818,270.251454 80.939803,270.853415 C80.9241871,275.526508 80.9156235,280.198936 80.9047931,284.872029 C77.6070574,284.914575 74.3093217,284.957121 71.011586,285 L71,284.982051 Z" id="Fill-50" fill="#FFFFFF"></path>
                    <path d="M82.0623189,268.848255 C82.0474431,263.920885 82.056144,258.993177 82.0002894,254.06682 C81.986817,252.877711 82.445723,253.028039 82.9512213,253.027701 C86.2968847,253.024323 89.6425482,253.010472 92.9879309,253 L93,253.017904 C92.9952285,258.302683 92.9901763,263.587799 92.9854048,268.872915 C89.3562582,269.061078 85.7271115,269.015473 82.0979648,268.896225 L82.0623189,268.848255 Z" id="Fill-52" fill="#FFFFFF"></path>
                    <path d="M92.0225877,253.98206 C92.0206116,249.095051 92.0383968,244.207025 92.0002856,239.320693 C91.9926634,238.315738 92.1338157,237.983687 92.8790997,238.000611 C96.2464283,238.077447 99.6148862,238.05206 102.982779,238.063907 C102.982779,238.063907 103,238.08997 103,238.08997 C102.996048,243.387559 102.992095,248.685487 102.988143,253.983414 C99.3368162,253.98883 95.6857715,253.994246 92.0347268,254 L92.0225877,253.98206 Z" id="Fill-54" fill="#FFFFFF"></path>
                    <path d="M116.050241,221.970109 C116.040112,217.068374 116.056431,212.1663 116.00044,207.265923 C115.987779,206.156911 116.247194,205.991493 116.919931,206.000324 C120.275452,206.04584 123.631255,206.017307 126.986776,206.01459 L127,206.033951 C126.995217,211.348382 126.990434,216.663491 126.985932,221.977922 L116.071625,222 L116.050241,221.970109 Z" id="Fill-56" fill="#FFFFFF"></path>
                    <path d="M151.987053,222 C148.325922,221.999319 144.66479,221.998298 141.003377,221.997617 C141.002252,216.681758 141.001126,211.365559 141,206.0497 C144.66676,206.03336 148.333521,206.01668 152,206 C151.995778,211.33356 151.991556,216.66678 151.987053,222" id="Fill-58" fill="#FFE4DA"></path>
                    <path d="M137.996905,206.051868 C137.997934,211.345764 137.998962,216.639998 137.99999,221.934233 C138.000247,221.934233 137.99562,221.941691 137.99562,221.941691 C134.682166,221.961014 131.368455,221.980338 128.055001,222 L128,221.912876 C128.004112,216.60881 128.008482,211.304066 128.012594,206 C131.340698,206.01695 134.668802,206.034578 137.996905,206.051868" id="Fill-60" fill="#FCF1ED"></path>
                    <path d="M116.08285,221.021293 L126.940381,221 C126.940381,221 127.000279,221.085174 126.999999,221.084841 C126.981246,226.381244 126.962493,231.678311 126.944019,236.975047 C123.326335,236.983697 119.708651,236.991682 116.090687,237 C116.059338,236.950094 116.029109,236.898524 116,236.845956 C116.02771,231.570846 116.05514,226.29607 116.08285,221.021293" id="Fill-62" fill="#FCF1ED"></path>
                    <path d="M106,253.916698 C106.003524,248.659277 106.007048,243.401856 106.010572,238.144771 C108.935965,238.124281 111.861106,238.107486 114.786246,238.080951 C115.164066,238.077928 115.541381,238.028215 115.918697,238 C115.944875,238.052735 115.97206,238.105135 116,238.155183 C115.994714,243.409245 115.989428,248.662972 115.984394,253.917034 C112.673379,253.944913 109.362616,253.972457 106.051601,254 L106,253.916698 Z" id="Fill-64" fill="#FCF1ED"></path>
                    <path d="M82.1052832,269.022625 C85.7161898,269.140406 89.3270964,269.18499 92.938003,269 L93,269.088503 C92.9812892,274.385015 92.9622991,279.681861 92.9435883,284.978373 C92.9435883,284.978373 92.9438676,284.978041 92.9438676,284.978041 C89.3335195,284.985693 85.7231714,284.993013 82.1125441,285 C82.0762396,284.952754 82.0388179,284.907172 82,284.863254 C82.0117292,280.185593 82.0212242,275.508266 82.0385387,270.830938 C82.0407728,270.228056 82.0821041,269.625507 82.1052832,269.022625" id="Fill-66" fill="#FCF1ED"></path>
                    <path d="M92.0149273,253.016593 C95.6574648,253.010836 99.3000024,253.005418 102.942822,253 C102.942822,253 103.000559,253.083979 102.999996,253.083302 C102.986477,258.36618 102.973239,263.649397 102.960002,268.932614 C102.960002,268.932614 102.954651,268.940063 102.954651,268.940063 C99.3239424,268.960042 95.6935156,268.980021 92.0628072,269 L92,268.909926 C92.0050696,263.61181 92.0098576,258.31437 92.0149273,253.016593" id="Fill-68" fill="#FCF1ED"></path>
                    <path d="M128,236.966921 C128.016953,231.663602 128.034162,226.35995 128.051372,221.056964 C131.363059,221.038309 134.674747,221.018988 137.986177,221 C137.984379,225.774653 137.952015,230.549972 137.999534,235.323292 C138.01289,236.665445 137.74139,237.018889 136.914303,236.999234 C133.943468,236.927946 130.971606,236.968587 128,236.966921" id="Fill-70" fill="#FFE4DA"></path>
                    <path d="M106,268.977502 C106.011843,263.679287 106.023685,258.381073 106.036032,253.083198 C109.350732,253.056032 112.664927,253.028186 115.979375,253 C115.980383,257.753859 115.955185,262.508396 115.999532,267.261236 C116.011627,268.582903 115.792411,269.020969 114.952334,268.999235 C111.968979,268.922828 108.984111,268.974445 106,268.977502" id="Fill-72" fill="#FFE4DA"></path>
                    <path d="M92.0571094,269.058985 C95.7016523,269.03899 99.3459125,269.019662 102.990455,269 C102.988194,273.831785 102.962466,278.663569 102.999785,283.494688 C103.008832,284.674391 102.733463,285.012639 101.927994,284.999642 C98.6187568,284.945656 95.309237,284.975648 92,284.974315 C92.0189422,279.669316 92.0381672,274.363984 92.0571094,269.058985" id="Fill-74" fill="#FFE4DA"></path>
                    <path d="M116,253.966466 C116.005935,248.652577 116.011871,243.339028 116.017523,238.025139 C119.67115,238.016986 123.324211,238.008493 126.977272,238 C126.978685,242.790721 126.952683,247.581442 126.9996,252.371144 C127.011754,253.635579 126.749185,254.017084 125.880082,253.999419 C122.587381,253.931135 119.293549,253.968504 116,253.966466" id="Fill-76" fill="#FFE4DA"></path>
                    <path d="M231.988129,112 C228.659722,111.999319 225.331315,111.998638 222.002907,111.997617 C222.001938,106.681758 222.000969,101.365559 222,96.0497 C225.333253,96.0333603 228.666747,96.0166801 232,96 C231.996124,101.33356 231.992248,106.66678 231.988129,112" id="Fill-78" fill="#FFE4DA"></path>
                    <path d="M221.996596,96.0518677 C221.997727,101.345764 221.998858,106.639998 221.999989,111.934233 C222.000271,111.934233 221.995182,111.941691 221.995182,111.941691 C218.350383,111.961014 214.705301,111.980338 211.060502,112 L211,111.912876 C211.004523,106.60881 211.00933,101.304066 211.013853,96 C214.67505,96.0169502 218.335682,96.0345785 221.996596,96.0518677" id="Fill-80" fill="#FCF1ED"></path>
                    <path d="M198.003515,111.928956 C198.005212,107.057592 198.01709,102.185891 198.000121,97.3152004 C197.996444,96.3027458 198.075067,95.9953394 198.439901,96.0000532 C201.808816,96.0434874 205.178013,96.0418039 208.546645,96.0020734 C208.911478,95.998033 208.993212,96.3276616 208.99095,97.3380959 C208.978789,102.208113 208.994061,107.078804 209,111.949495 L208.999152,111.950842 C207.150095,111.96734 205.301038,111.983502 203.451699,112 C201.637994,111.982492 199.824007,111.96532 198.01002,111.948148 L198.003515,111.928956 Z" id="Fill-82" fill="#FFFFFF"></path>
                    <path d="M176,142.97471 C176.021879,138.224824 176.080314,133.47394 176.041542,128.725053 C176.030741,127.396656 176.290516,127.073208 177.18145,127.084522 C180.446915,127.127116 183.71321,127.038933 186.978952,127 L187,127.029616 C186.972859,132.30527 186.945442,137.580924 186.918301,142.856911 C186.50316,142.884863 186.087741,142.93378 185.672323,142.93744 C182.453939,142.963063 179.235555,142.980367 176.017171,143 L176,142.97471 Z" id="Fill-84" fill="#FFFFFF"></path>
                    <path d="M141,189.982383 C141.010805,185.237062 141.052364,180.491077 141.011359,175.747086 C141.000554,174.526187 141.192832,174.150909 142.069441,174.177168 C144.95693,174.264257 147.846359,174.212735 150.735234,174.205422 C151.148603,174.204425 151.57444,174.312122 151.965091,174 L152,174.046868 C151.977004,174.648842 151.936,175.251148 151.933783,175.853454 C151.916883,180.526311 151.907186,185.199169 151.895272,189.872027 C148.267763,189.914906 144.640254,189.957453 141.012745,190 L141,189.982383 Z" id="Fill-86" fill="#FFFFFF"></path>
                    <path d="M153.056654,174.84846 C153.042875,169.921026 153.050785,164.992916 153.000263,160.066834 C152.988015,158.877709 153.405203,159.028039 153.864747,159.027363 C156.906259,159.024323 159.947516,159.010135 162.989028,159 L163,159.017904 L162.986476,174.872783 C159.687507,175.061286 156.388283,175.015342 153.088804,174.896092 L153.056654,174.84846 Z" id="Fill-88" fill="#FFFFFF"></path>
                    <path d="M163.022588,158.98206 C163.020612,154.09472 163.038397,149.20704 163.000286,144.320376 C162.992664,143.315423 163.133534,142.983372 163.8791,143.000635 C167.246146,143.077132 170.614604,143.052084 173.982779,143.063931 L174,143.089656 C173.996048,148.387237 173.991813,153.685495 173.987861,158.983076 C170.336816,158.98883 166.685772,158.994246 163.034445,159 L163.022588,158.98206 Z" id="Fill-90" fill="#FFFFFF"></path>
                    <path d="M187.045674,127.96977 C187.036721,123.068375 187.051301,118.1663 187.0004,113.265924 C186.98889,112.156572 187.224722,111.991493 187.836556,112.000325 C190.886775,112.0455 193.937504,112.016968 196.988234,112.014251 C196.988234,112.014251 197,112.033612 197,112.033612 C196.995652,117.348382 196.991303,122.663152 196.987211,127.977922 L187.065113,128 L187.045674,127.96977 Z" id="Fill-92" fill="#FFFFFF"></path>
                    <path d="M221.987053,128 C218.325922,127.999319 214.66479,127.998638 211.003377,127.997957 C211.002252,122.681645 211.001126,117.365673 211,112.049701 C214.66676,112.033021 218.333521,112.01668 222,112 C221.995778,117.333333 221.991556,122.666667 221.987053,128" id="Fill-94" fill="#FFE4DA"></path>
                    <path d="M208.996596,112.052206 C208.997727,117.345989 208.998858,122.639773 208.999989,127.934235 C209.000271,127.934235 208.995182,127.941692 208.995182,127.941353 C205.350383,127.961015 201.705301,127.980338 198.060502,128 L198,127.912878 C198.004523,122.608585 198.00933,117.304293 198.013853,112 C201.67505,112.017289 205.335682,112.034578 208.996596,112.052206" id="Fill-96" fill="#FCF1ED"></path>
                    <path d="M187.075318,127.021293 L196.945801,127 C196.945801,127 197.000254,127.085174 196.999999,127.084508 C196.982951,132.380911 196.965902,137.677979 196.949109,142.975047 C196.949109,142.975047 196.949109,142.974714 196.949363,142.975047 C193.660305,142.983365 190.371501,142.991682 187.082443,143 C187.053944,142.949761 187.026463,142.898524 187,142.845623 C187.025191,137.570846 187.050127,132.29607 187.075318,127.021293" id="Fill-98" fill="#FCF1ED"></path>
                    <path d="M176,157.916698 C176.003876,152.659613 176.007753,147.401856 176.011906,142.144771 C179.229561,142.124617 182.447216,142.107486 185.664871,142.081286 C186.080472,142.077928 186.49552,142.028551 186.910567,142 C186.939363,142.053071 186.969266,142.105135 187,142.155519 C186.994185,147.409245 186.988648,152.663308 186.982833,157.91737 C183.340994,157.944913 179.698877,157.972457 176.056761,158 L176,157.916698 Z" id="Fill-100" fill="#FCF1ED"></path>
                    <path d="M153.09571,174.022624 C156.378269,174.140403 159.660828,174.185319 162.943387,174 L163,174.088833 C162.982737,179.385236 162.965473,184.681639 162.948464,189.978374 L162.948718,189.978041 C159.666667,189.985693 156.384615,189.99268 153.10231,190 C153.069307,189.952755 153.035288,189.906841 153,189.862924 C153.010663,185.185693 153.019548,180.508131 153.035034,175.831233 C153.037065,175.228031 153.074638,174.625494 153.09571,174.022624" id="Fill-102" fill="#FCF1ED"></path>
                    <path d="M163.014927,159.016931 C166.657465,159.011174 170.300284,159.005756 173.942822,159 C173.942822,159 174.000559,159.083977 173.999996,159.083638 C173.986477,164.366405 173.973239,169.649171 173.960002,174.932615 C173.960002,174.932615 173.954651,174.940065 173.954651,174.939726 C170.323942,174.959705 166.693516,174.980022 163.062807,175 L163,174.909589 L163.014927,159.016931 Z" id="Fill-104" fill="#FCF1ED"></path>
                    <path d="M198,142.966922 C198.018648,137.66338 198.037296,132.359838 198.056509,127.056963 C201.699365,127.038641 205.341939,127.019321 208.984795,127 C208.982534,131.774887 208.947216,136.550106 208.999487,141.323327 C209.014179,142.665452 208.715529,143.018888 207.805451,142.999234 C204.537532,142.927614 201.268484,142.968588 198,142.966922" id="Fill-106" fill="#FFE4DA"></path>
                    <path d="M176,174.977502 C176.013027,169.678948 176.026054,164.381073 176.039635,159.083198 C179.685805,159.055692 183.331697,159.027846 186.977312,159 C186.978421,163.753859 186.950704,168.508397 186.999486,173.261237 C187.01279,174.582564 186.771652,175.020969 185.847568,174.999236 C182.565877,174.922829 179.2828,174.974106 176,174.977502" id="Fill-108" fill="#FFE4DA"></path>
                    <path d="M163.057392,174.059318 C166.701652,174.039323 170.346195,174.019662 173.990738,174 C173.988193,178.831779 173.962466,183.663892 173.999785,188.494671 C174.008832,189.674706 173.733745,190.012954 172.927994,189.999624 C169.619039,189.945971 166.30952,189.97563 163,189.974631 C163.019225,184.669304 163.038167,179.364311 163.057392,174.059318" id="Fill-110" fill="#FFE4DA"></path>
                    <path d="M187,158.966784 C187.005396,153.652789 187.010792,148.338795 187.01593,143.02514 C190.337403,143.016986 193.658363,143.008153 196.979579,143 C196.980607,147.790477 196.956968,152.581633 196.99962,157.37143 C197.010926,158.635551 196.771971,159.017403 195.981878,158.999397 C192.988518,158.931452 189.994131,158.968822 187,158.966784" id="Fill-112" fill="#FFE4DA"></path>
                    <path d="M302.986942,16 C299.325694,15.9993192 295.664446,15.9982979 292.003198,15.9976171 C292.002132,10.6817582 292.000799,5.36555891 292,0.0497000128 C295.666578,0.0333602825 299.333422,0.0166801413 303,0 C302.995736,5.33356027 302.991206,10.6667801 302.986942,16" id="Fill-114" fill="#FFE4DA"></path>
                    <path d="M290.996905,0.0518677035 C290.997934,5.3457635 290.998962,10.6396593 290.99999,15.9342331 C291.000247,15.9342331 290.99562,15.9416912 290.99562,15.9416912 C287.682166,15.9610145 284.368455,15.9803377 281.055001,16 L281,15.9128758 C281.004112,10.6088099 281.008482,5.30406594 281.012594,0 C284.340698,0.0169502299 287.668802,0.034578469 290.996905,0.0518677035" id="Fill-116" fill="#FCF1ED"></path>
                    <path d="M268.003498,15.9289579 C268.005195,11.057694 268.017073,6.18609329 268.000104,1.31550271 C267.99671,0.303069007 268.075051,-0.0043310487 268.440168,4.59510013e-05 C271.809087,0.043815948 275.178007,0.0421324866 278.546927,0.00240279699 C278.911478,-0.00163751042 278.993495,0.327984236 278.99095,1.33839778 C278.978789,6.20831498 278.994344,11.0789056 279,15.9494962 L278.999434,15.9508429 C277.150092,15.9670042 275.301033,15.9835021 273.451973,16 C271.637983,15.982492 269.823993,15.9653207 268.010003,15.9481494 L268.003498,15.9289579 Z" id="Fill-118" fill="#FFFFFF"></path>
                    <path d="M246,47.9747099 C246.021878,43.2248243 246.080589,38.4739404 246.041818,33.725053 C246.031017,32.3966557 246.290509,32.0728755 247.18142,32.0845223 C250.446803,32.1267834 253.713016,32.0389335 256.978953,32 L257,32.0292833 C256.972583,37.3052702 256.945166,42.5809243 256.918026,47.8569111 C256.502895,47.8845306 256.087764,47.9337798 255.67208,47.9371074 C252.453776,47.9630631 249.235473,47.9803669 246.01717,48 L246,47.9747099 Z" id="Fill-120" fill="#FFFFFF"></path>
                    <path d="M212,95.9823832 C212.010805,91.2371614 212.052087,86.4912747 212.011359,81.7473824 C212.000554,80.5265082 212.192832,80.1512382 213.069164,80.1774971 C215.95693,80.2645837 218.846359,80.213063 221.735234,80.2057504 C222.148326,80.2044208 222.57444,80.3124481 222.964814,80 L223,80.0471996 C222.977004,80.6491607 222.936,81.2514542 222.933783,81.8537477 C222.916606,86.5265082 222.907186,91.1992687 222.895272,95.8720293 C219.267486,95.9145754 215.640254,95.9574539 212.012745,96 L212,95.9823832 Z" id="Fill-122" fill="#FFFFFF"></path>
                    <path d="M222.056654,78.8482516 C222.04313,73.9211152 222.05104,68.9929654 222.000263,64.0665046 C221.988015,62.8773706 222.405203,63.0280392 222.864747,63.0273636 C225.906259,63.0243232 228.947771,63.0101347 231.989028,63 L232,63.0175668 C231.995662,68.3027947 231.991069,73.5880226 231.986732,78.8729127 C228.687507,79.0610796 225.388283,79.0154736 222.088804,78.8962224 L222.056654,78.8482516 Z" id="Fill-124" fill="#FFFFFF"></path>
                    <path d="M234.022588,63.9823989 C234.020612,59.0950507 234.038397,54.2073639 234.000286,49.3206926 C233.992663,48.3157382 234.133816,47.9836869 234.8791,48.000611 C238.246428,48.0774465 241.614886,48.0523988 244.982779,48.0642457 L245,48.0899704 C244.996048,53.3875594 244.992095,58.6858254 244.988143,63.9834144 C241.336816,63.9891686 237.685772,63.9945843 234.034727,64 L234.022588,63.9823989 Z" id="Fill-126" fill="#FFFFFF"></path>
                    <path d="M257.045674,31.9701087 C257.036466,27.0682772 257.051301,22.1664456 257.0004,17.2656331 C256.98889,16.1565984 257.224722,15.9911773 257.836301,16.0003485 C260.886775,16.0455251 263.937504,16.0169925 266.987978,16.0142751 L267,16.0336365 C266.995652,21.3485113 266.991303,26.6633861 266.987211,31.9779212 L257.065113,32 L257.045674,31.9701087 Z" id="Fill-128" fill="#FFFFFF"></path>
                    <path d="M290.98823,32 C287.659929,31.9993192 284.331628,31.9986383 281.00307,31.9976171 C281.002047,26.6816451 281.001023,21.3656731 281,16.0497011 C284.333419,16.0330206 287.666837,16.0163401 291,16 C290.996162,21.3333333 290.992324,26.6666667 290.98823,32" id="Fill-130" fill="#FFE4DA"></path>
                    <path d="M278.996596,16.0522067 C278.997727,21.3461025 278.998858,26.6399983 278.999989,31.9342331 C279.000271,31.9345721 278.995182,31.9420302 278.995182,31.9416912 C275.350383,31.9610145 271.705301,31.9803377 268.060502,32 L268,31.9128758 C268.004523,26.6088099 268.00933,21.3044049 268.013853,16 C271.674767,16.0172892 275.335682,16.0345785 278.996596,16.0522067" id="Fill-132" fill="#FCF1ED"></path>
                    <path d="M257.075318,32.0212934 L266.945801,32 C266.945801,32 267.000254,32.0851736 266.999999,32.0848409 C266.982696,37.3812435 266.965902,42.6783115 266.949109,47.9753795 L266.949109,47.9750468 C263.660305,47.9836972 260.371247,47.992015 257.082443,48 C257.053944,47.9500936 257.026463,47.8988563 257,47.8459555 C257.025191,42.571179 257.050127,37.2960699 257.075318,32.0212934" id="Fill-134" fill="#FCF1ED"></path>
                    <path d="M246,63.9166982 C246.003876,58.6596129 246.007753,53.4018558 246.011629,48.1447705 C249.229561,48.1246169 252.447216,48.1074862 255.664871,48.0809506 C256.080472,48.0779275 256.49552,48.0282151 256.910567,48 C256.939363,48.0530713 256.969266,48.105135 257,48.1555192 C256.994185,53.4092455 256.988371,58.6629718 256.982833,63.9170341 C256.982833,63.9170341 256.982833,63.9170341 256.982833,63.9173699 L246.056761,64 L246,63.9166982 Z" id="Fill-136" fill="#FCF1ED"></path>
                    <path d="M222.09571,80.0226247 C225.378522,80.1404063 228.661081,80.1849903 231.943387,80 L232,80.0888353 C231.982737,85.385348 231.965727,90.6818607 231.948718,95.9787061 C231.948718,95.9787061 231.948718,95.9783734 231.948972,95.9783734 C228.666667,95.9856932 225.384615,95.993013 222.10231,96 C222.069307,95.9527543 222.035288,95.9071721 222,95.8632536 C222.010663,91.1859261 222.019548,86.5082659 222.035288,81.8312712 C222.037319,81.2280563 222.074638,80.6255069 222.09571,80.0226247" id="Fill-138" fill="#FCF1ED"></path>
                    <path d="M234.014927,63.0165922 C237.657466,63.0111744 241.300004,63.0057565 244.942825,63 C244.942825,63 245.000281,63.0839771 244.999999,63.0836384 C244.98648,68.3664049 244.973243,73.6491714 244.960005,78.9326152 C244.960005,78.9326152 244.954654,78.9400648 244.954654,78.9397261 C241.323944,78.9597046 237.693517,78.9800216 234.062807,79 L234,78.9095892 C234.00507,73.6119236 234.009858,68.3145965 234.014927,63.0165922" id="Fill-140" fill="#FCF1ED"></path>
                    <path d="M268,47.9669221 C268.018648,42.6633803 268.037296,37.3598385 268.056509,32.0569629 C271.699365,32.0383084 275.342221,32.0189876 278.984795,32 C278.982817,36.7745534 278.947216,41.5501062 278.999487,46.3233272 C279.014179,47.665452 278.715529,48.0188882 277.805733,47.9992344 C274.537815,47.9276144 271.268766,47.9685877 268,47.9669221" id="Fill-142" fill="#FFE4DA"></path>
                    <path d="M246,78.9775021 C246.013027,73.6789481 246.026054,68.3810733 246.039635,63.0831985 C249.685528,63.055692 253.33142,63.027846 256.977312,63 C256.978421,67.7538587 256.950427,72.5083966 256.999486,77.2612365 C257.01279,78.5825641 256.771652,79.0209691 255.847568,78.9992356 C252.565877,78.9224892 249.282523,78.9741063 246,78.9775021" id="Fill-144" fill="#FFE4DA"></path>
                    <path d="M234.057109,80.0593184 C237.701652,80.0393234 241.345912,80.0196617 244.990455,80 C244.988194,84.8317846 244.962183,89.6639024 244.999785,94.4946873 C245.008832,95.6747238 244.733463,96.0126388 243.927994,95.999642 C240.618757,95.9459889 237.309237,95.9756481 234,95.9746483 C234.018942,90.6693162 234.038167,85.3643173 234.057109,80.0593184" id="Fill-146" fill="#FFE4DA"></path>
                    <path d="M257,63.966466 C257.005396,58.6525772 257.010535,53.3390281 257.01593,48.0254789 C260.337152,48.0173257 263.658374,48.008493 266.979338,48 C266.980623,52.7907212 266.956984,57.5814423 266.999637,62.3711443 C267.010685,63.6355795 266.771987,64.0170842 265.981893,63.9994188 C262.988528,63.9311352 259.994136,63.9688441 257,63.966466" id="Fill-148" fill="#FFE4DA"></path>
                </g>
            </g>
        </g>
    </g>
</svg>