<?xml version="1.0" encoding="UTF-8"?>
<svg width="55px" height="106px" viewBox="0 0 55 106" version="1.1" xmlns="http://www.w3.org/2000/svg" xmlns:xlink="http://www.w3.org/1999/xlink">
    <!-- Generator: Sketch 52.4 (67378) - http://www.bohemiancoding.com/sketch -->
    <title>Group 3</title>
    <desc>Created with Sketch.</desc>
    <defs>
        <polygon id="path-1" points="0.000341796875 0 54.90625 0 54.90625 105.031641 0.000341796875 105.031641"></polygon>
    </defs>
    <g id="Mobile" stroke="none" stroke-width="1" fill="none" fill-rule="evenodd">
        <g id="Mobile-—-DropDown-Menu" transform="translate(-188.000000, -208.000000)">
            <g id="Group-3" transform="translate(188.000000, 208.000000)">
                <mask id="mask-2" fill="white">
                    <use xlink:href="#path-1"></use>
                </mask>
                <g id="Clip-2"></g>
                <path d="M39.2405762,0 L42.452002,0 C42.5672363,0.016196468 42.6824707,0.0412273731 42.7981934,0.0476077999 C46.054541,0.218897719 49.311377,0.383316409 52.5672363,0.562459161 C53.1868652,0.596324503 53.8025879,0.68614128 54.4144043,0.749454746 L54.4144043,17.4273996 L53.932959,17.4273996 C50.957373,17.4273996 47.9812988,17.4224915 45.0057129,17.4293628 C43.6736816,17.4327984 42.3460449,17.4892406 41.0394043,17.7896115 C38.7825684,18.3088801 37.2669434,19.6114687 36.8465332,21.954067 C36.6438965,23.0834025 36.5516113,24.245131 36.5398926,25.3936078 C36.5008301,29.0672612 36.5218262,32.7404238 36.5213379,36.4135865 C36.5213379,36.5264709 36.5369629,36.6383738 36.5467285,36.7689272 L54.9065918,36.7689272 L54.9065918,37.2415695 C54.8836426,37.3151898 54.8484863,37.3878286 54.8396973,37.4629213 C54.6512207,39.1159426 54.4661621,40.7689639 54.2786621,42.4224761 C54.0311035,44.6094901 53.7825684,46.7960132 53.5345215,48.9825364 C53.285498,51.1818205 53.0374512,53.3820861 52.7864746,55.5808793 C52.7054199,56.2925423 52.6180176,57.0032237 52.5281738,57.7605313 L36.5203613,57.7605313 L36.5203613,58.3598006 C36.5203613,73.7209235 36.5203613,89.0815556 36.5193848,104.442678 C36.5193848,104.638999 36.5057129,104.83532 36.498877,105.031641 L15.6629395,105.031641 C15.6556152,104.83532 15.6429199,104.638508 15.6429199,104.442678 C15.6419434,89.0781199 15.6419434,73.7135614 15.6419434,58.3494937 L15.6419434,57.7683841 L0.000341796875,57.7683841 L0.000341796875,36.7605835 L15.6419434,36.7605835 L15.6419434,36.2457322 C15.6419434,32.4798079 15.6497559,28.7143745 15.639502,24.9484503 C15.6307129,21.9702634 15.9393066,19.0347763 16.7757324,16.1694739 C18.0057129,11.9534842 20.1780762,8.33480059 23.5560059,5.50090949 C27.498877,2.191922 32.1312012,0.638042678 37.176123,0.160001472 C37.863623,0.0947247976 38.5525879,0.0525158205 39.2405762,0" id="Fill-1" fill="#FFFFFF" mask="url(#mask-2)"></path>
            </g>
        </g>
    </g>
</svg>