
<svg width="375px" height="667px" viewBox="0 0 375 667" version="1.1" xmlns="http://www.w3.org/2000/svg" xmlns:xlink="http://www.w3.org/1999/xlink">
    <g id="Mobile" stroke="none" stroke-width="1" fill="none" fill-rule="evenodd">
        <g id="Mobile-—-DropDown-Menu">
            <g id="Group-35" transform="translate(-4.394531, -468.679176)">
                <polygon id="Fill-5" fill="#FF62C6" points="313.990539 525.958947 5.37109375 526.139809 5.37109375 233.130979 318.359375 233.130979"></polygon>
                <polygon id="Fill-6" fill="#FAC744" points="87.890625 472.151582 378.90625 472.151582 378.90625 179.142752 87.890625 179.142752"></polygon>
                <polygon id="Fill-8" fill="#4B81EF" points="378.417969 471.778369 314.0123 525.649007 87.890625 471.66078"></polygon>
                <polygon id="Fill-9" fill="#FAC744" points="69.8187681 441.903862 65.4296875 736.203091 379.882812 736.203091 379.882812 441.721854"></polygon>
                <polygon id="Fill-10" fill="#4B81EF" points="4.39453125 790.191317 296.875 790.191317 296.875 495.710081 4.39453125 495.710081"></polygon>
                <polygon id="Fill-11" fill="#FF62C6" points="296.875 789.992049 380.065885 790.191317 380.371094 735.736152 297.140131 662.582781"></polygon>
                <polygon id="Fill-12" fill="#FF4B3A" points="5.37109375 495.592491 69.9931957 441.721854 296.875 495.710081"></polygon>
                <polygon id="Fill-13" fill="#FAC744" points="4.39453125 844.179544 4.39453125 1138.66078 314.457735 1138.47923 318.847656 844.179544"></polygon>
                <polygon id="Fill-14" fill="#26302F" points="87.4023438 1084.67255 379.882812 1084.67255 379.882812 790.191317 87.4023438 790.191317"></polygon>
                <polygon id="Fill-15" fill="#4B81EF" points="4.39453125 844.575848 87.6254128 917.799853 87.890625 790.268135 5.03391876 790.191317"></polygon>
                <polygon id="Fill-16" fill="#FF4B3A" points="379.394531 1084.79069 314.772534 1138.66078 87.890625 1084.67255"></polygon>
                <polygon id="Fill-21" fill="#FF62C6" points="312.037414 526.449749 5.37109375 526.630611 1.8189894e-12 482.321182 5.37109375 233.621781 318.359375 233.621781"></polygon>
                <polygon id="Fill-22" fill="#FAC744" points="87.890625 472.642384 378.90625 472.642384 378.90625 179.633554 87.890625 179.633554"></polygon>
                <polygon id="Fill-24" fill="#4B81EF" points="378.417969 472.76049 314.0123 526.630611 87.890625 472.642384"></polygon>
                <polygon id="Fill-25" fill="#FAC744" points="69.8187681 441.903862 65.4296875 736.203091 379.882812 736.203091 379.882812 441.721854"></polygon>
                <polygon id="Fill-26" fill="#4B81EF" points="4.39453125 790.191317 296.875 790.191317 296.875 495.710081 4.39453125 495.710081"></polygon>
                <polygon id="Fill-27" fill="#FF62C6" points="295.410156 789.992049 380.060531 790.191317 380.371094 735.736152 295.679938 662.582781"></polygon>
                <polygon id="Fill-28" fill="#FF4B3A" points="5.37109375 495.592491 69.9931957 441.721854 296.875 495.710081"></polygon>
                <polygon id="Fill-29" fill="#FAC744" points="4.39453125 844.179544 4.39453125 1138.66078 314.457735 1138.47923 318.847656 844.179544"></polygon>
                <polygon id="Fill-30" fill="#26302F" points="87.4023438 1084.67255 379.882812 1084.67255 379.882812 790.191317 87.4023438 790.191317"></polygon>
                <polygon id="Fill-31" fill="#4B81EF" points="4.39453125 844.575848 87.6254128 917.799853 96.3620124 786.785887 2.52485348 775.467255"></polygon>
                <polygon id="Fill-32" fill="#FF4B3A" points="314.74594 1139.64238 379.882812 1139.64238 379.882812 1084.75075 87.890625 1084.67255"></polygon>
                <polygon id="Fill-33" fill="#4B81EF" points="87.4023438 932.523915 231.933594 932.523915 231.933594 789.700515 87.4023438 789.700515"></polygon>
                <polygon id="Fill-34" fill="#FF62C6" points="162.597656 790.191317 296.875 790.191317 296.875 643.441501 162.597656 643.441501"></polygon>
            </g>
        </g>
    </g>
</svg>