<?xml version="1.0" encoding="UTF-8"?>
<svg width="25px" height="21px" viewBox="0 0 25 21" version="1.1" xmlns="http://www.w3.org/2000/svg" xmlns:xlink="http://www.w3.org/1999/xlink">
    <!-- Generator: Sketch 52.4 (67378) - http://www.bohemiancoding.com/sketch -->
    <title>Shape</title>
    <desc>Created with Sketch.</desc>
    <g id="Desktop" stroke="none" stroke-width="1" fill="none" fill-rule="evenodd">
        <g id="Desktop-—-Homepage-Copy-9" transform="translate(-952.000000, -42.000000)" stroke="#FFFFFF" stroke-width="1.5">
            <path d="M972.643951,46.8457316 C973.491518,46.2841254 974.141868,45.3936155 974.447086,44.3328037 C973.653519,44.8541095 972.776604,45.2311137 971.840993,45.4352159 C971.094383,44.5512061 970.027294,44 968.846334,44 C966.580677,44 964.744673,46.0345226 964.744673,48.5435505 C964.744673,48.8997544 964.778717,49.2468583 964.849152,49.578362 C961.440101,49.3885599 958.417268,47.5815398 956.392264,44.8307092 C956.038915,45.5041167 955.837002,46.2841254 955.837002,47.1161346 C955.837002,48.6917521 956.561308,50.0827676 957.662441,50.8991767 C956.989787,50.8757764 956.357046,50.6690741 955.802958,50.3310703 L955.802958,50.386971 C955.802958,52.5891954 957.216353,54.4261158 959.095792,54.8421205 C958.75066,54.9487217 958.389094,55.0020222 958.013441,55.0020222 C957.74931,55.0020222 957.491049,54.9747219 957.242179,54.9214213 C957.763397,56.7258414 959.278922,58.041456 961.075013,58.0765564 C959.669836,59.29597 957.900745,60.021378 955.979046,60.021378 C955.648001,60.021378 955.320479,60.0018778 955,59.9589773 C956.816047,61.2472916 958.97253,62 961.28984,62 C968.838117,62 972.963256,55.0761231 972.963256,49.0713563 C972.963256,48.8737542 972.960909,48.677452 972.952691,48.4837498 C973.754476,47.8428427 974.451781,47.0420338 975,46.1307237 C974.263955,46.4921277 973.472736,46.7365304 972.643951,46.8457316 Z" id="Shape"></path>
        </g>
    </g>
</svg>