<svg width="30" height="26" viewBox="0 0 30 26" fill="none" xmlns="http://www.w3.org/2000/svg">
<path fill-rule="evenodd" clip-rule="evenodd" d="M26.4659 4.1105C27.7373 3.29929 28.7128 2.013 29.1706 0.480716C27.9803 1.23371 26.6649 1.77828 25.2615 2.07309C24.1416 0.796187 22.5409 0 20.7695 0C17.371 0 14.617 2.93875 14.617 6.56291C14.617 7.07742 14.6681 7.5788 14.7737 8.05763C9.66015 7.78348 5.1259 5.17334 2.0884 1.19991C1.55837 2.17261 1.2555 3.29929 1.2555 4.50108C1.2555 6.77698 2.34196 8.78622 3.99366 9.96548C2.98468 9.93168 2.03557 9.63311 1.20444 9.14488V9.22563C1.20444 12.4066 3.32453 15.0599 6.14369 15.6608C5.62599 15.8148 5.08364 15.8918 4.52016 15.8918C4.12397 15.8918 3.73657 15.8524 3.36327 15.7754C4.1451 18.3818 6.41838 20.2821 9.11252 20.3328C7.00476 22.0942 4.35112 23.142 1.46857 23.142C0.972002 23.142 0.480718 23.1138 0 23.0519C2.72407 24.9128 5.9588 26 9.43476 26C20.7572 26 26.9449 15.9988 26.9449 7.32529C26.9449 7.03987 26.9414 6.75632 26.929 6.47653C28.1317 5.55077 29.1777 4.39405 30 3.07771C28.8959 3.59974 27.7091 3.95277 26.4659 4.1105Z" fill="white"/>
</svg>
