<svg id="Layer_1" data-name="Layer 1" xmlns="http://www.w3.org/2000/svg" viewBox="0 0 1084.65 357.77"><defs><style>.cls-1{fill:#4b81ef;}.cls-2{fill:#ff62c6;}.cls-3{fill:#ff4b3a;}.cls-4{fill:#26302f;}.cls-5{fill:#fac744;}</style></defs><title>Footer</title><path class="cls-1" d="M62.31-1.13H-5V61S62.7-1.13,62.31-1.13Z"/><polygon class="cls-2" points="60.11 -1.39 367.43 -1.58 367.43 303.31 55.76 303.31 60.11 -1.39"/><polygon class="cls-3" points="-4.79 54.45 285.23 54.45 285.12 358.59 -4.79 358.35 -4.79 54.45"/><polygon class="cls-1" points="285.12 358.59 367.63 303.11 285.26 227.27 285.12 358.59"/><polygon class="cls-4" points="-4.19 54.45 59.93 -1.31 285.03 54.57 -4.19 54.45"/><polygon class="cls-2" points="499.32 61.25 499.49 358.72 218.37 358.72 218.37 57.04 499.32 61.25"/><rect class="cls-5" x="166.91" y="-1.77" width="280.72" height="281.12" transform="translate(168.48 446.06) rotate(-90)"/><polygon class="cls-4" points="166.69 278.93 218.56 358.91 288.49 279.18 166.69 278.93"/><polygon class="cls-1" points="447.83 -0.99 499.25 61.07 447.72 278.96 447.83 -0.99"/><polygon class="cls-5" points="418.7 296.36 418.52 -2.42 700.88 -2.42 700.88 300.59 418.7 296.36"/><rect class="cls-1" x="470.61" y="77.3" width="281.96" height="282.36" transform="translate(830.07 -393.11) rotate(90)"/><polygon class="cls-2" points="752.78 77.73 752.98 -2.31 700.69 -2.61 630.46 77.47 752.78 77.73"/><polygon class="cls-3" points="470.41 358.88 418.77 296.54 470.52 77.69 470.41 358.88"/><polygon class="cls-5" points="1086.78 60.74 1086.95 359.43 804.68 359.43 804.68 56.52 1086.78 60.74"/><rect class="cls-4" x="753.01" y="-2.53" width="281.87" height="282.27" transform="translate(755.34 1032.55) rotate(-90)"/><polygon class="cls-1" points="752.79 279.31 752.72 359.01 804.87 359.62 875.09 279.56 752.79 279.31"/><polygon class="cls-3" points="1035.08 -1.75 1086.71 60.56 1034.97 279.35 1035.08 -1.75"/><polygon class="cls-1" points="1034.88 -2.13 1086.78 -2.62 1086.78 63.12 1034.88 -2.13"/><path class="cls-1" d="M62.31-1.13H-5V61S62.7-1.13,62.31-1.13Z"/><polygon class="cls-2" points="60.11 -1.39 367.43 -1.58 367.43 303.31 55.76 303.31 60.11 -1.39"/><polygon class="cls-3" points="-4.79 54.45 285.23 54.45 285.12 358.59 -4.79 358.35 -4.79 54.45"/><polygon class="cls-1" points="285.12 358.59 367.63 303.11 285.26 227.27 285.12 358.59"/><polygon class="cls-4" points="-4.19 54.45 59.93 -1.31 285.03 54.57 -4.19 54.45"/><polygon class="cls-2" points="499.82 61.25 499.99 358.72 218.87 358.72 218.87 57.04 499.82 61.25"/><rect class="cls-5" x="167.41" y="-1.77" width="280.72" height="281.12" transform="translate(168.98 446.56) rotate(-90)"/><polygon class="cls-4" points="167.19 278.93 219.06 358.91 288.99 279.18 167.19 278.93"/><polygon class="cls-1" points="448.33 -0.99 499.75 61.07 448.22 278.96 448.33 -0.99"/><polygon class="cls-5" points="418.7 296.36 418.52 -2.42 700.88 -2.42 700.88 300.59 418.7 296.36"/><rect class="cls-1" x="470.61" y="77.3" width="281.96" height="282.36" transform="translate(830.07 -393.11) rotate(90)"/><polygon class="cls-4" points="752.78 77.73 752.98 -2.31 700.69 -2.61 630.46 77.47 752.78 77.73"/><polygon class="cls-3" points="470.41 358.88 418.77 296.54 470.52 77.69 470.41 358.88"/><polygon class="cls-5" points="1086.78 60.74 1086.95 359.43 804.68 359.43 804.68 56.52 1086.78 60.74"/><rect class="cls-2" x="753.01" y="-2.53" width="281.87" height="282.27" transform="translate(755.34 1032.55) rotate(-90)"/><polygon class="cls-1" points="752.79 279.31 752.72 359.01 804.87 359.62 875.09 279.56 752.79 279.31"/><polygon class="cls-3" points="1035.08 -1.75 1086.71 60.56 1034.97 279.35 1035.08 -1.75"/><polygon class="cls-1" points="1034.88 -2.13 1086.78 -2.62 1086.78 63.12 1034.88 -2.13"/></svg>