<svg width="30" height="30" viewBox="0 0 30 30" fill="none" xmlns="http://www.w3.org/2000/svg">
<mask id="mask0" mask-type="alpha" maskUnits="userSpaceOnUse" x="0" y="0" width="30" height="30">
<path fill-rule="evenodd" clip-rule="evenodd" d="M0 0.00292969H29.9965V29.9679H0V0.00292969Z" fill="white"/>
</mask>
<g mask="url(#mask0)">
<path fill-rule="evenodd" clip-rule="evenodd" d="M15.0013 2.30872V2.30782C12.9287 2.30782 10.8561 2.30962 8.78351 2.30692C8.07466 2.30602 7.38168 2.40082 6.70765 2.62141C4.09037 3.47856 2.31509 5.89772 2.30967 8.64614C2.30155 12.8791 2.30679 17.1124 2.30859 21.3455C2.30895 21.9752 2.4089 22.5916 2.59888 23.1922C3.44394 25.8652 5.89326 27.6611 8.70142 27.6625C12.8428 27.6643 16.9845 27.6633 21.1259 27.6622C21.3409 27.662 21.5565 27.6568 21.771 27.6418C22.8626 27.5659 23.8772 27.2414 24.7827 26.6299C26.6931 25.3396 27.6749 23.5276 27.6843 21.2258C27.7015 17.0619 27.689 12.898 27.6896 8.73391C27.6896 8.27542 27.6437 7.82233 27.5526 7.37303C26.9637 4.46673 24.3383 2.31395 21.3693 2.30944C19.2467 2.30602 17.1241 2.30872 15.0013 2.30872ZM29.9965 8.25469V21.716C29.9897 21.7571 29.979 21.798 29.9763 21.8391C29.9388 22.4582 29.8401 23.0677 29.659 23.6603C28.8541 26.293 27.186 28.167 24.6685 29.2813C23.9239 29.6108 23.1406 29.8123 22.33 29.9024C22.1319 29.9244 21.934 29.9462 21.736 29.968H8.26066C8.22332 29.9613 8.18615 29.9505 8.14863 29.9483C7.61766 29.918 7.09392 29.8382 6.5801 29.7038C4.56703 29.1761 2.93283 28.0799 1.69301 26.4103C0.78661 25.1899 0.244823 23.8192 0.0638669 22.3084C0.0402326 22.1113 0.0211086 21.9134 0 21.716V8.25469C0.00667536 8.21793 0.0171394 8.18116 0.0193044 8.14403C0.0523204 7.55957 0.150827 6.98573 0.303638 6.42109C1.22213 3.02818 4.14467 0.498728 7.64328 0.0678105C7.8486 0.0427593 8.05481 0.0243764 8.26066 0.00292969H21.736C21.7734 0.009598 21.8104 0.0204115 21.8479 0.0223939C22.3558 0.0506892 22.8562 0.127645 23.3493 0.250378C25.2022 0.711393 26.7442 1.67505 27.9694 3.13451C29.0688 4.4442 29.7223 5.95304 29.931 7.6513C29.9558 7.85207 29.9749 8.05356 29.9965 8.25469Z" fill="white"/>
</g>
<path fill-rule="evenodd" clip-rule="evenodd" d="M14.9927 20.7144C18.1537 20.718 20.7061 18.1772 20.7144 15.0185C20.7228 11.8513 18.1969 9.32498 15.076 9.28584C11.8697 9.24563 9.28832 11.8109 9.28564 14.9923C9.28314 18.1596 11.8274 20.7106 14.9927 20.7144ZM7 15.0014C6.99803 10.5803 10.6287 6.95555 15.0836 7.00041C19.4308 7.04402 22.9968 10.603 23 14.9976C23.0029 19.4065 19.3997 23.0029 14.9846 23C10.5944 22.9973 7.00089 19.3976 7 15.0014Z" fill="white"/>
<path fill-rule="evenodd" clip-rule="evenodd" d="M24.0006 5C24.5514 5.00016 24.9991 5.44712 25 5.99765C25.0009 6.55068 24.5476 7.00234 23.9941 6.99999C23.4461 6.99764 22.9986 6.54568 23 5.99608C23.0014 5.44571 23.4494 4.99984 24.0006 5Z" fill="white"/>
</svg>
