<?xml version="1.0" encoding="UTF-8"?>
<svg width="100px" height="81px" viewBox="0 0 100 81" version="1.1" xmlns="http://www.w3.org/2000/svg" xmlns:xlink="http://www.w3.org/1999/xlink">
    <!-- Generator: Sketch 52.4 (67378) - http://www.bohemiancoding.com/sketch -->
    <title>Group 3 Copy</title>
    <desc>Created with Sketch.</desc>
    <defs>
        <polygon id="path-1" points="0 0 99.609375 0 99.609375 80.98234 0 80.98234"></polygon>
    </defs>
    <g id="Mobile" stroke="none" stroke-width="1" fill="none" fill-rule="evenodd">
        <g id="Mobile-—-DropDown-Menu" transform="translate(-109.000000, -368.000000)">
            <g id="Group-3-Copy" transform="translate(109.000000, 368.000000)">
                <mask id="mask-2" fill="white">
                    <use xlink:href="#path-1"></use>
                </mask>
                <g id="Clip-2"></g>
                <path d="M33.0032766,80.98234 L29.6589895,80.98234 C29.5327695,80.9660348 29.4070935,80.9394031 29.2803294,80.935055 C25.3941667,80.8138534 21.560777,80.2969801 17.7785281,79.3991097 C11.6829706,77.9522992 5.97695422,75.567399 0.647421766,72.2797369 C0.4287129,72.1444042 0.215444554,71.9998318 0,71.859064 C5.39536273,72.3900684 10.6938842,72.016137 15.901005,70.5589999 C21.1026853,69.1034933 25.8337606,66.7153321 30.1546208,63.3379917 C19.5042608,63.0428684 12.8570346,55.2897687 11.1100839,49.1492485 C12.6209161,49.4324147 14.1350125,49.5541598 15.6572697,49.4916567 C17.1751746,49.4286101 18.67839,49.2438184 20.135905,48.7910787 C8.66021821,46.1692103 3.57659722,35.9540327 3.93295121,28.5058393 C6.78051888,30.0580898 9.80707962,30.9108492 13.1187236,31.0255288 C2.672927,23.8349568 2.28556205,11.0278035 6.85396589,3.76494541 C12.0774082,10.1054755 18.3242122,15.1758342 25.6515032,18.8972133 C32.9815145,22.6185925 40.7581924,24.6676066 48.9973145,25.1029541 C48.9652154,24.9360981 48.9434533,24.8214185 48.9200591,24.7067389 C48.3264985,21.8495328 48.3090888,18.9901527 48.9380128,16.1394686 C50.0152356,11.2609672 52.524947,7.26240048 56.4997902,4.2367078 C61.3445724,0.547395449 66.8199108,-0.708101242 72.796321,0.375104345 C77.0486306,1.14579452 80.6709282,3.16328531 83.6860639,6.25963364 C83.8177244,6.3949664 83.9265348,6.44442536 84.12729,6.40366248 C88.309417,5.55579459 92.2586897,4.08235237 95.9849012,2.00725004 C96.2596474,1.85506863 96.5327615,1.70125669 96.8831309,1.50505137 C95.2406382,6.37594372 92.2543373,10.0674301 87.9155234,12.8050651 C92.0116902,12.2979749 95.8488882,11.2446621 99.609375,9.60164626 C99.5125338,9.75491469 99.4690096,9.82774437 99.4216771,9.89785652 C96.7487501,13.817615 93.5013043,17.1824549 89.6641062,19.9771579 C89.5101395,20.0885764 89.4062256,20.1842333 89.4181947,20.4092444 C89.5498553,22.8294724 89.4753202,25.2475265 89.2625959,27.6601454 C88.9862175,30.7956261 88.4525026,33.8898004 87.6690679,36.9394073 C86.2496364,42.4646798 84.1180411,47.6997205 81.2394625,52.6298549 C77.283117,59.4068195 72.2196259,65.2027575 65.920593,69.9046198 C60.3467812,74.0662381 54.1897458,77.0343192 47.4804978,78.8648442 C45.0855813,79.5181373 42.6618301,80.0437067 40.1961868,80.3437215 C38.4971127,80.5502534 36.7898779,80.6937388 35.0848192,80.8508117 C34.3927852,80.9144018 33.6969428,80.9399466 33.0032766,80.98234" id="Fill-1" fill="#FFFFFF" mask="url(#mask-2)"></path>
            </g>
        </g>
    </g>
</svg>