<?xml version="1.0" encoding="UTF-8"?>
<svg width="25px" height="21px" viewBox="0 0 25 21" version="1.1" xmlns="http://www.w3.org/2000/svg" xmlns:xlink="http://www.w3.org/1999/xlink">
    <!-- Generator: Sketch 52.4 (67378) - http://www.bohemiancoding.com/sketch -->
    <title>Shape</title>
    <desc>Created with Sketch.</desc>
    <g id="Desktop" stroke="none" stroke-width="1" fill="none" fill-rule="evenodd">
        <g id="Desktop-—-Homepage-Copy-8" transform="translate(-947.000000, -42.000000)" stroke="#FF62C6" stroke-width="1.5">
            <path d="M967.643951,46.8457316 C968.491518,46.2841254 969.141868,45.3936155 969.447086,44.3328037 C968.653519,44.8541095 967.776604,45.2311137 966.840993,45.4352159 C966.094383,44.5512061 965.027294,44 963.846334,44 C961.580677,44 959.744673,46.0345226 959.744673,48.5435505 C959.744673,48.8997544 959.778717,49.2468583 959.849152,49.578362 C956.440101,49.3885599 953.417268,47.5815398 951.392264,44.8307092 C951.038915,45.5041167 950.837002,46.2841254 950.837002,47.1161346 C950.837002,48.6917521 951.561308,50.0827676 952.662441,50.8991767 C951.989787,50.8757764 951.357046,50.6690741 950.802958,50.3310703 L950.802958,50.386971 C950.802958,52.5891954 952.216353,54.4261158 954.095792,54.8421205 C953.75066,54.9487217 953.389094,55.0020222 953.013441,55.0020222 C952.74931,55.0020222 952.491049,54.9747219 952.242179,54.9214213 C952.763397,56.7258414 954.278922,58.041456 956.075013,58.0765564 C954.669836,59.29597 952.900745,60.021378 950.979046,60.021378 C950.648001,60.021378 950.320479,60.0018778 950,59.9589773 C951.816047,61.2472916 953.97253,62 956.28984,62 C963.838117,62 967.963256,55.0761231 967.963256,49.0713563 C967.963256,48.8737542 967.960909,48.677452 967.952691,48.4837498 C968.754476,47.8428427 969.451781,47.0420338 970,46.1307237 C969.263955,46.4921277 968.472736,46.7365304 967.643951,46.8457316 Z" id="Shape"></path>
        </g>
    </g>
</svg>